<svg width="40" height="40" viewBox="0 0 40 40" fill="none" xmlns="http://www.w3.org/2000/svg">
<g clip-path="url(#clip0_68_8607)">
<path d="M40 5.86659C40.0005 5.41876 39.9106 4.97545 39.736 4.5631C39.5613 4.15075 39.3053 3.77782 38.9833 3.46659C38.6818 3.16049 38.3206 2.91967 37.922 2.75911C37.5235 2.59855 37.0962 2.52167 36.6667 2.53325H35.2167C35.0915 2.5425 34.9659 2.52499 34.8481 2.48188C34.7302 2.43877 34.623 2.37106 34.5333 2.28325C34.4332 2.2111 34.349 2.11912 34.2859 2.01303C34.2228 1.90695 34.1822 1.78902 34.1667 1.66659C34.1675 1.54931 34.1426 1.43329 34.0936 1.32672C34.0447 1.22015 33.9729 1.12566 33.8833 1.04992C33.7311 0.915472 33.5364 0.838786 33.3333 0.833252C31.0389 1.03794 28.7648 1.4281 26.5333 1.99992C26.3544 2.04809 26.1966 2.15454 26.0849 2.30245C25.9732 2.45035 25.914 2.63127 25.9167 2.81659V13.3333C25.9175 13.4978 25.967 13.6584 26.0589 13.7948C26.1509 13.9312 26.2812 14.0374 26.4333 14.0999C26.584 14.1655 26.7512 14.1831 26.9123 14.1503C27.0733 14.1175 27.2203 14.0359 27.3333 13.9166L29.4833 11.7666C29.6419 11.6128 29.8541 11.5269 30.075 11.5269C30.2959 11.5269 30.5081 11.6128 30.6667 11.7666L32.8167 13.9166C32.9348 14.0107 33.0763 14.071 33.226 14.091C33.3757 14.111 33.528 14.0899 33.6667 14.0299C33.8053 13.97 33.9251 13.8736 34.0132 13.7508C34.1012 13.6281 34.1543 13.4838 34.1667 13.3333V6.78325C34.1621 6.56945 34.2416 6.36239 34.3881 6.20657C34.5346 6.05075 34.7363 5.9586 34.95 5.94992H35.8C35.9096 5.94192 36.0197 5.95708 36.1231 5.99441C36.2264 6.03174 36.3208 6.0904 36.4 6.16659C36.5424 6.29866 36.6363 6.47475 36.6667 6.66658V29.2166C36.6668 29.4319 36.5836 29.639 36.4345 29.7944C36.2854 29.9497 36.0819 30.0413 35.8667 30.0499C31.4155 30.1352 27.0122 30.9865 22.85 32.5666C22.7309 32.6353 22.5958 32.6715 22.4583 32.6715C22.3208 32.6715 22.1858 32.6353 22.0667 32.5666C21.9517 32.4928 21.8565 32.3919 21.7897 32.2728C21.7228 32.1536 21.6863 32.0198 21.6833 31.8832V9.99992C21.6833 9.68325 22.1167 9.23325 22.9333 8.74992C23.0562 8.67513 23.1576 8.56983 23.2277 8.44424C23.2978 8.31866 23.3342 8.17707 23.3333 8.03325V6.14992C23.3326 6.00641 23.2955 5.86542 23.2256 5.74011C23.1556 5.61479 23.0551 5.50923 22.9333 5.43325C22.8117 5.36304 22.6738 5.32607 22.5333 5.32607C22.3929 5.32607 22.255 5.36304 22.1333 5.43325C21.548 5.70108 20.9898 6.0248 20.4667 6.39992C20.3214 6.5056 20.1463 6.56253 19.9667 6.56253C19.787 6.56253 19.612 6.5056 19.4667 6.39992C16.2667 3.96658 9.81667 2.71659 3.41667 2.53325C2.97357 2.51204 2.53096 2.58417 2.11751 2.74495C1.70407 2.90573 1.32902 3.15159 1.01667 3.46659C0.69468 3.77782 0.438707 4.15075 0.264031 4.5631C0.0893553 4.97545 -0.000441616 5.41876 1.63297e-06 5.86659V29.9999C1.63297e-06 30.884 0.351191 31.7318 0.976312 32.3569C1.60143 32.9821 2.44928 33.3333 3.33334 33.3333C13.3333 33.6333 18.3333 36.3666 18.3333 37.4832C18.3333 37.9253 18.5089 38.3492 18.8215 38.6618C19.1341 38.9743 19.558 39.1499 20 39.1499C20.442 39.1499 20.866 38.9743 21.1785 38.6618C21.4911 38.3492 21.6667 37.9253 21.6667 37.4832C21.6667 36.3666 26.8 33.6333 36.6667 33.3333C37.5507 33.3333 38.3986 32.9821 39.0237 32.3569C39.6488 31.7318 40 30.884 40 29.9999V5.86659ZM4.13334 29.9999C3.91815 29.9913 3.71465 29.8997 3.56551 29.7444C3.41637 29.589 3.33316 29.3819 3.33334 29.1666V6.66658C3.33389 6.44136 3.4238 6.22557 3.58334 6.06659C3.75284 5.91502 3.97262 5.83185 4.2 5.83325C13.5167 6.31659 18.3333 8.93325 18.3333 9.99992V31.8166C18.3304 31.9532 18.2938 32.087 18.227 32.2061C18.1601 32.3253 18.065 32.4262 17.95 32.4999C17.8309 32.5687 17.6958 32.6049 17.5583 32.6049C17.4208 32.6049 17.2858 32.5687 17.1667 32.4999C12.9981 30.924 8.58915 30.0782 4.13334 29.9999Z" fill="#F9F7F4"/>
<path d="M15.4333 12.3999C12.617 11.5402 9.71746 10.9816 6.78333 10.7332C6.61918 10.7179 6.45362 10.7351 6.2961 10.7837C6.13858 10.8324 5.99218 10.9116 5.86528 11.0168C5.73837 11.1221 5.63343 11.2513 5.55646 11.3971C5.47949 11.5429 5.43199 11.7024 5.41666 11.8665C5.40134 12.0307 5.41851 12.1963 5.46717 12.3538C5.51583 12.5113 5.59505 12.6577 5.70029 12.7846C5.80553 12.9115 5.93473 13.0164 6.08052 13.0934C6.22632 13.1704 6.38585 13.2179 6.55 13.2332C9.29441 13.4626 12.0052 13.9936 14.6333 14.8165C14.9494 14.9226 15.2946 14.8988 15.5931 14.7504C15.8916 14.6019 16.1189 14.3409 16.225 14.0249C16.3311 13.7088 16.3073 13.3636 16.1588 13.0651C16.0103 12.7666 15.7494 12.5393 15.4333 12.4332V12.3999Z" fill="#F9F7F4"/>
<path d="M15.4333 19.3666C12.6211 18.4904 9.71977 17.9314 6.78333 17.6999C6.45413 17.6673 6.12544 17.7666 5.86927 17.9759C5.6131 18.1852 5.45034 18.4875 5.41666 18.8166C5.38873 19.1475 5.49184 19.4761 5.70381 19.7317C5.91578 19.9873 6.21965 20.1495 6.55 20.1833C9.29065 20.3801 12.0014 20.8775 14.6333 21.6666C14.7905 21.7264 14.958 21.7539 15.126 21.7474C15.294 21.741 15.459 21.7007 15.6111 21.629C15.7631 21.5573 15.8992 21.4557 16.011 21.3302C16.1229 21.2047 16.2083 21.0579 16.2622 20.8986C16.316 20.7394 16.3372 20.5709 16.3244 20.4033C16.3116 20.2356 16.2651 20.0723 16.1877 19.923C16.1103 19.7738 16.0036 19.6417 15.874 19.5346C15.7444 19.4275 15.5945 19.3477 15.4333 19.2999V19.3666Z" fill="#F9F7F4"/>
<path d="M15.4333 26.3166C12.6211 25.4403 9.71977 24.8813 6.78333 24.6499C6.45413 24.6173 6.12544 24.7165 5.86927 24.9258C5.6131 25.1351 5.45034 25.4375 5.41666 25.7666C5.38873 26.0974 5.49184 26.4261 5.70381 26.6817C5.91578 26.9373 6.21965 27.0994 6.55 27.1332C9.29441 27.3626 12.0052 27.8936 14.6333 28.7166C14.9433 28.8085 15.2769 28.7767 15.564 28.6279C15.8511 28.479 16.0693 28.2247 16.1728 27.9184C16.2764 27.6121 16.2572 27.2775 16.1193 26.9851C15.9814 26.6926 15.7355 26.4649 15.4333 26.3499V26.3166Z" fill="#F9F7F4"/>
<path d="M25.3667 21.6665C27.9948 20.8435 30.7056 20.3125 33.45 20.0832C33.7803 20.0494 34.0842 19.8872 34.2962 19.6316C34.5082 19.376 34.6113 19.0474 34.5833 18.7165C34.5497 18.3874 34.3869 18.0851 34.1307 17.8758C33.8746 17.6665 33.5459 17.5672 33.2167 17.5998C30.2802 17.8313 27.3789 18.3903 24.5667 19.2665C24.4014 19.3182 24.2488 19.4037 24.1183 19.5175C23.9878 19.6313 23.8824 19.771 23.8088 19.9277C23.7352 20.0844 23.6949 20.2547 23.6905 20.4278C23.6861 20.6008 23.7177 20.773 23.7833 20.9332C23.9029 21.2351 24.1339 21.4795 24.4286 21.6159C24.7232 21.7524 25.0591 21.7705 25.3667 21.6665Z" fill="#F9F7F4"/>
<path d="M25.3667 28.6833C27.9948 27.8604 30.7056 27.3294 33.45 27.1C33.7803 27.0662 34.0842 26.9041 34.2962 26.6485C34.5082 26.3929 34.6113 26.0642 34.5833 25.7333C34.5497 25.4043 34.3869 25.1019 34.1307 24.8926C33.8746 24.6833 33.5459 24.5841 33.2167 24.6167C30.2802 24.8481 27.3789 25.4071 24.5667 26.2833C24.2645 26.3984 24.0186 26.626 23.8807 26.9185C23.7428 27.211 23.7236 27.5455 23.8271 27.8519C23.9307 28.1582 24.1489 28.4125 24.436 28.5613C24.7231 28.7101 25.0566 28.7419 25.3667 28.65V28.6833Z" fill="#F9F7F4"/>
</g>
<defs>
<clipPath id="clip0_68_8607">
<rect width="40" height="40" fill="white"/>
</clipPath>
</defs>
</svg>
