<svg width="40" height="40" viewBox="0 0 40 40" fill="none" xmlns="http://www.w3.org/2000/svg">
<path d="M19.9999 38.0002V8.9785C19.9999 8.9785 15.9083 4.4335 2.11327 4.25016C1.99957 4.24905 1.88677 4.27058 1.78147 4.3135C1.67617 4.35641 1.58047 4.41988 1.49994 4.50016C1.33759 4.66435 1.24655 4.88595 1.24661 5.11683V32.4069C1.24476 32.6315 1.33093 32.848 1.48667 33.01C1.64241 33.1719 1.85536 33.2665 2.07994 33.2735C15.9049 33.4519 19.9999 38.0002 19.9999 38.0002Z" stroke="#F9F7F4" stroke-width="1.5" stroke-linecap="round" stroke-linejoin="round"/>
<path d="M15.0001 19.7583C12.1638 18.8045 9.21815 18.2137 6.2334 18" stroke="#F9F7F4" stroke-width="1.5" stroke-linecap="round" stroke-linejoin="round"/>
<path d="M15.0001 26.75C12.1632 25.7998 9.21765 25.2118 6.2334 25" stroke="#F9F7F4" stroke-width="1.5" stroke-linecap="round" stroke-linejoin="round"/>
<path d="M25 19.7583C27.8362 18.8045 30.782 18.2137 33.7667 18" stroke="#F9F7F4" stroke-width="1.5" stroke-linecap="round" stroke-linejoin="round"/>
<path d="M25 26.75C27.8368 25.7998 30.7823 25.2118 33.7667 25" stroke="#F9F7F4" stroke-width="1.5" stroke-linecap="round" stroke-linejoin="round"/>
<path d="M33.7667 4.45014C35.0333 4.34014 36.4033 4.27014 37.8867 4.25014C37.9998 4.24945 38.112 4.2712 38.2167 4.3141C38.3213 4.35702 38.4165 4.42024 38.4967 4.50014C38.659 4.6643 38.75 4.8859 38.75 5.1168V32.4069C38.7518 32.6315 38.6657 32.848 38.51 33.0099C38.3542 33.1719 38.1413 33.2665 37.9167 33.2735C24.095 33.4519 20 38.0002 20 38.0002" stroke="#F9F7F4" stroke-width="1.5" stroke-linecap="round" stroke-linejoin="round"/>
<path d="M20 37.9999V8.97817C20 8.97817 21.905 6.86151 27.5 5.45984" stroke="#F9F7F4" stroke-width="1.5" stroke-linecap="round" stroke-linejoin="round"/>
<path d="M33.75 12.9999V1.99988C31.6435 2.16781 29.5537 2.50219 27.5 2.99988V12.9999L30.625 10.4999L33.75 12.9999Z" stroke="#F9F7F4" stroke-width="1.5" stroke-linecap="round" stroke-linejoin="round"/>
</svg>
