<svg width="40" height="40" viewBox="0 0 40 40" fill="none" xmlns="http://www.w3.org/2000/svg">
<g clip-path="url(#clip0_54_911)">
<path d="M31.6667 30.9833C31.2246 30.9833 30.8007 31.1589 30.4882 31.4714C30.1756 31.784 30 32.2079 30 32.65V36.25C30 36.3605 29.9561 36.4664 29.878 36.5446C29.7998 36.6227 29.6938 36.6666 29.5833 36.6666H3.75C3.64503 36.667 3.54381 36.6277 3.46656 36.5566C3.38931 36.4855 3.34173 36.3879 3.33333 36.2833V7.94995C3.33333 7.83944 3.37723 7.73346 3.45537 7.65532C3.53351 7.57718 3.63949 7.53328 3.75 7.53328H5.83333C6.27536 7.53328 6.69928 7.35769 7.01184 7.04513C7.3244 6.73257 7.5 6.30865 7.5 5.86662C7.5 5.42459 7.3244 5.00067 7.01184 4.68811C6.69928 4.37555 6.27536 4.19995 5.83333 4.19995H3.33333C2.44928 4.19995 1.60143 4.55114 0.976311 5.17626C0.35119 5.80138 0 6.64923 0 7.53328L0 36.6666C0 37.5507 0.35119 38.3985 0.976311 39.0236C1.60143 39.6488 2.44928 40 3.33333 40H30C30.8841 40 31.7319 39.6488 32.357 39.0236C32.9821 38.3985 33.3333 37.5507 33.3333 36.6666V32.65C33.3333 32.2079 33.1577 31.784 32.8452 31.4714C32.5326 31.1589 32.1087 30.9833 31.6667 30.9833Z" fill="#F9F7F4"/>
<path d="M27.5 7.49996H29.5834C29.6939 7.49996 29.7999 7.54386 29.878 7.622C29.9561 7.70014 30 7.80612 30 7.91663V9.16663C30 9.60865 30.1756 10.0326 30.4882 10.3451C30.8008 10.6577 31.2247 10.8333 31.6667 10.8333C32.1087 10.8333 32.5327 10.6577 32.8452 10.3451C33.1578 10.0326 33.3334 9.60865 33.3334 9.16663V7.49996C33.3334 6.6159 32.9822 5.76806 32.3571 5.14294C31.7319 4.51782 30.8841 4.16663 30 4.16663H27.5C27.058 4.16663 26.6341 4.34222 26.3215 4.65478C26.009 4.96734 25.8334 5.39127 25.8334 5.83329C25.8334 6.27532 26.009 6.69924 26.3215 7.0118C26.6341 7.32436 27.058 7.49996 27.5 7.49996Z" fill="#F9F7F4"/>
<path d="M11.6666 9.16667H21.6666C22.3297 9.16667 22.9656 8.90328 23.4344 8.43443C23.9032 7.96559 24.1666 7.32971 24.1666 6.66667V5.83333C24.1666 5.17029 23.9032 4.53441 23.4344 4.06557C22.9656 3.59673 22.3297 3.33333 21.6666 3.33333H20C20 2.44928 19.6488 1.60143 19.0236 0.976311C18.3985 0.35119 17.5507 0 16.6666 0C15.7826 0 14.9347 0.35119 14.3096 0.976311C13.6845 1.60143 13.3333 2.44928 13.3333 3.33333H11.6666C11.0036 3.33333 10.3677 3.59673 9.89886 4.06557C9.43002 4.53441 9.16663 5.17029 9.16663 5.83333V6.66667C9.16663 7.32971 9.43002 7.96559 9.89886 8.43443C10.3677 8.90328 11.0036 9.16667 11.6666 9.16667Z" fill="#F9F7F4"/>
<path d="M6.66663 16.6667C6.66663 17.1087 6.84222 17.5326 7.15478 17.8452C7.46734 18.1577 7.89127 18.3333 8.33329 18.3333H21.6666C22.1087 18.3333 22.5326 18.1577 22.8451 17.8452C23.1577 17.5326 23.3333 17.1087 23.3333 16.6667C23.3333 16.2246 23.1577 15.8007 22.8451 15.4882C22.5326 15.1756 22.1087 15 21.6666 15H8.33329C7.89127 15 7.46734 15.1756 7.15478 15.4882C6.84222 15.8007 6.66663 16.2246 6.66663 16.6667Z" fill="#F9F7F4"/>
<path d="M8.33329 23.3334C7.89127 23.3334 7.46734 23.509 7.15478 23.8215C6.84222 24.1341 6.66663 24.558 6.66663 25C6.66663 25.4421 6.84222 25.866 7.15478 26.1786C7.46734 26.4911 7.89127 26.6667 8.33329 26.6667H15.8333C16.2753 26.6667 16.6992 26.4911 17.0118 26.1786C17.3244 25.866 17.5 25.4421 17.5 25C17.5 24.558 17.3244 24.1341 17.0118 23.8215C16.6992 23.509 16.2753 23.3334 15.8333 23.3334H8.33329Z" fill="#F9F7F4"/>
<path d="M39.0167 13.7333C38.3921 13.1125 37.5473 12.764 36.6667 12.764C35.786 12.764 34.9412 13.1125 34.3167 13.7333L21.2 26.85C21.1182 26.9293 21.0555 27.0262 21.0167 27.1333L18.65 33.0167C18.5911 33.1685 18.5771 33.334 18.6096 33.4936C18.6421 33.6531 18.7198 33.8 18.8333 33.9167C18.9477 34.034 19.0946 34.1142 19.2551 34.1469C19.4156 34.1796 19.5822 34.1632 19.7333 34.1L25.6333 31.75C25.7372 31.7048 25.8329 31.6429 25.9167 31.5667L39.0167 18.45C39.3266 18.1404 39.5724 17.7728 39.7402 17.3681C39.9079 16.9635 39.9943 16.5297 39.9943 16.0917C39.9943 15.6536 39.9079 15.2199 39.7402 14.8152C39.5724 14.4106 39.3266 14.0429 39.0167 13.7333Z" fill="#F9F7F4"/>
</g>
<defs>
<clipPath id="clip0_54_911">
<rect width="40" height="40" fill="white"/>
</clipPath>
</defs>
</svg>
