<svg width="40" height="40" viewBox="0 0 40 40" fill="none" xmlns="http://www.w3.org/2000/svg">
<g clip-path="url(#clip0_68_8597)">
<path d="M21.75 31.9001L15.55 32.7835L16.4334 26.6668L32.35 10.7667C33.0608 10.1043 34.0012 9.74369 34.9727 9.76084C35.9442 9.77797 36.871 10.1715 37.5582 10.8586C38.2452 11.5457 38.6388 12.4726 38.6558 13.4441C38.673 14.4156 38.3125 15.3558 37.65 16.0667L21.75 31.9001Z" stroke="#F9F7F4" stroke-width="1.5" stroke-linecap="round" stroke-linejoin="round"/>
<path d="M9.16666 1.25H20.8333C20.8333 1.25 22.0833 1.25 22.0833 2.5V6.66667C22.0833 6.66667 22.0833 7.91667 20.8333 7.91667H9.16666C9.16666 7.91667 7.91666 7.91667 7.91666 6.66667V2.5C7.91666 2.5 7.91666 1.25 9.16666 1.25Z" stroke="#F9F7F4" stroke-width="1.5" stroke-linecap="round" stroke-linejoin="round"/>
<path d="M22.0833 4.58325H26.25C26.913 4.58325 27.549 4.84665 28.0178 5.31549C28.4867 5.78432 28.75 6.42022 28.75 7.08325" stroke="#F9F7F4" stroke-width="1.5" stroke-linecap="round" stroke-linejoin="round"/>
<path d="M28.75 31.2499V36.2499C28.75 36.9129 28.4867 37.5489 28.0178 38.0178C27.549 38.4866 26.913 38.7499 26.25 38.7499H3.75C3.08697 38.7499 2.45107 38.4866 1.98223 38.0178C1.51339 37.5489 1.25 36.9129 1.25 36.2499V7.08325C1.25 6.42022 1.51339 5.78432 1.98223 5.31549C2.45107 4.84665 3.08697 4.58325 3.75 4.58325H7.91667" stroke="#F9F7F4" stroke-width="1.5" stroke-linecap="round" stroke-linejoin="round"/>
<path d="M8.75 14.5833H20.4167" stroke="#F9F7F4" stroke-width="1.5" stroke-linecap="round" stroke-linejoin="round"/>
<path d="M8.75 22.0833H12.9167" stroke="#F9F7F4" stroke-width="1.5" stroke-linecap="round" stroke-linejoin="round"/>
</g>
<defs>
<clipPath id="clip0_68_8597">
<rect width="40" height="40" fill="white"/>
</clipPath>
</defs>
</svg>
