<svg width="24" height="24" viewBox="0 0 24 24" fill="none" xmlns="http://www.w3.org/2000/svg">
<g clip-path="url(#clip0_68_9936)">
<path d="M15.07 3.99997C15.0235 3.95165 14.9675 3.91341 14.9056 3.88761C14.8437 3.8618 14.7771 3.84899 14.71 3.84997C14.5795 3.84918 14.4539 3.89942 14.36 3.98997L3.44001 14.91C3.39315 14.9564 3.35595 15.0117 3.33057 15.0727C3.30518 15.1336 3.29211 15.199 3.29211 15.265C3.29211 15.331 3.30518 15.3963 3.33057 15.4573C3.35595 15.5182 3.39315 15.5735 3.44001 15.62L8.38001 20.56C8.4754 20.6557 8.60488 20.7096 8.74001 20.71C8.80541 20.7096 8.87007 20.6961 8.93018 20.6704C8.99029 20.6446 9.04464 20.6071 9.09001 20.56L20 9.64997C20.0923 9.55481 20.1439 9.42749 20.1439 9.29497C20.1439 9.16244 20.0923 9.03512 20 8.93997L15.07 3.99997Z" fill="#333333"/>
<path d="M2.43001 16.8C2.3657 16.74 2.287 16.6978 2.20153 16.6772C2.11606 16.6567 2.02674 16.6586 1.94222 16.6827C1.8577 16.7069 1.78086 16.7524 1.71915 16.815C1.65744 16.8776 1.61295 16.9551 1.59001 17.04L0.080009 23.31C0.0599984 23.3937 0.0624029 23.4812 0.0869804 23.5637C0.111558 23.6462 0.157441 23.7208 0.220009 23.78C0.280274 23.8409 0.354929 23.8857 0.437077 23.9102C0.519225 23.9346 0.606214 23.938 0.690009 23.92L7.00001 22.41C7.086 22.3895 7.16487 22.3462 7.22824 22.2846C7.29162 22.223 7.33715 22.1454 7.36001 22.06C7.38323 21.9748 7.3844 21.8852 7.36341 21.7994C7.34242 21.7137 7.29995 21.6347 7.24001 21.57L2.43001 16.8Z" fill="#333333"/>
<path d="M23.2 2.91999L21.08 0.799991C20.6084 0.334642 19.9725 0.0737305 19.31 0.0737305C18.6475 0.0737305 18.0116 0.334642 17.54 0.799991L16.13 2.21999C16.0822 2.26488 16.0441 2.3191 16.018 2.3793C15.9919 2.43949 15.9785 2.50439 15.9785 2.56999C15.9785 2.63559 15.9919 2.70049 16.018 2.76069C16.0441 2.82088 16.0822 2.8751 16.13 2.91999L21.08 7.91999C21.1249 7.96782 21.1791 8.00594 21.2393 8.032C21.2995 8.05806 21.3644 8.07151 21.43 8.07151C21.4956 8.07151 21.5605 8.05806 21.6207 8.032C21.6809 8.00594 21.7351 7.96782 21.78 7.91999L23.2 6.44999C23.6672 5.98138 23.9295 5.34668 23.9295 4.68499C23.9295 4.0233 23.6672 3.38861 23.2 2.91999Z" fill="#333333"/>
</g>
<defs>
<clipPath id="clip0_68_9936">
<rect width="24" height="24" fill="white"/>
</clipPath>
</defs>
</svg>
