<svg width="15" height="15" viewBox="0 0 15 15" fill="none" xmlns="http://www.w3.org/2000/svg">
<g clip-path="url(#clip0_54_832)">
<path d="M14.1625 3.4875C14.3381 3.31172 14.4367 3.07344 14.4367 2.825C14.4367 2.57656 14.3381 2.33828 14.1625 2.1625L12.8375 0.837503C12.7509 0.749822 12.6478 0.680206 12.534 0.632693C12.4203 0.58518 12.2983 0.560715 12.175 0.560715C12.0518 0.560715 11.9298 0.58518 11.816 0.632693C11.7023 0.680206 11.5991 0.749822 11.5125 0.837503L7.61253 4.7375C7.58159 4.76518 7.54154 4.78047 7.50003 4.78047C7.45852 4.78047 7.41847 4.76518 7.38753 4.7375L3.48753 0.837503C3.40091 0.749822 3.29775 0.680206 3.18403 0.632693C3.0703 0.58518 2.94828 0.560715 2.82503 0.560715C2.70178 0.560715 2.57976 0.58518 2.46603 0.632693C2.35231 0.680206 2.24915 0.749822 2.16253 0.837503L0.83753 2.1625C0.661966 2.33828 0.563354 2.57656 0.563354 2.825C0.563354 3.07344 0.661966 3.31172 0.83753 3.4875L4.73753 7.3875C4.75265 7.40208 4.76468 7.41955 4.7729 7.43888C4.78111 7.45821 4.78535 7.479 4.78535 7.5C4.78535 7.52101 4.78111 7.54179 4.7729 7.56112C4.76468 7.58045 4.75265 7.59793 4.73753 7.6125L0.83753 11.5125C0.661966 11.6883 0.563354 11.9266 0.563354 12.175C0.563354 12.4234 0.661966 12.6617 0.83753 12.8375L2.16253 14.1625C2.24915 14.2502 2.35231 14.3198 2.46603 14.3673C2.57976 14.4148 2.70178 14.4393 2.82503 14.4393C2.94828 14.4393 3.0703 14.4148 3.18403 14.3673C3.29775 14.3198 3.40091 14.2502 3.48753 14.1625L7.38753 10.2625C7.41847 10.2348 7.45852 10.2195 7.50003 10.2195C7.54154 10.2195 7.58159 10.2348 7.61253 10.2625L11.5125 14.1625C11.5989 14.2504 11.702 14.3201 11.8158 14.3673C11.9296 14.4146 12.0518 14.4384 12.175 14.4375C12.2984 14.4392 12.4207 14.4156 12.5346 14.3683C12.6486 14.3211 12.7516 14.251 12.8375 14.1625L14.1625 12.8375C14.3381 12.6617 14.4367 12.4234 14.4367 12.175C14.4367 11.9266 14.3381 11.6883 14.1625 11.5125L10.2625 7.6125C10.2474 7.59793 10.2354 7.58045 10.2272 7.56112C10.2189 7.54179 10.2147 7.52101 10.2147 7.5C10.2147 7.479 10.2189 7.45821 10.2272 7.43888C10.2354 7.41955 10.2474 7.40208 10.2625 7.3875L14.1625 3.4875Z" fill="#333333"/>
</g>
<defs>
<clipPath id="clip0_54_832">
<rect width="15" height="15" fill="white"/>
</clipPath>
</defs>
</svg>
