<svg width="15" height="16" viewBox="0 0 15 16" fill="none" xmlns="http://www.w3.org/2000/svg">
<mask id="mask0_68_7271" style="mask-type:luminance" maskUnits="userSpaceOnUse" x="0" y="0" width="15" height="16">
<path d="M8.52102 0.658095L9.93618 3.71666C10.0959 4.06201 10.415 4.3037 10.7867 4.36147L14.0413 4.86577C14.9488 5.00676 15.3193 6.12935 14.6782 6.79592L12.253 9.31762C12.003 9.57749 11.8895 9.94246 11.9471 10.3006L12.5099 13.7999C12.6614 14.7424 11.675 15.4476 10.8511 14.9853L8.04559 13.4121C7.70609 13.2219 7.29394 13.2219 6.95433 13.4121L4.14898 14.9853C3.32503 15.4476 2.33866 14.7424 2.49018 13.7999L3.0528 10.3006C3.11046 9.94246 2.9969 9.57749 2.74694 9.31762L0.321742 6.79592C-0.319275 6.12935 0.051273 5.00676 0.958658 4.86577L4.2132 4.36147C4.58503 4.3037 4.90402 4.06201 5.06386 3.71666L6.47902 0.658095C6.88496 -0.219365 8.11508 -0.219365 8.52102 0.658095Z" fill="white"/>
</mask>
<g mask="url(#mask0_68_7271)">
<path d="M3.59034 22.3171L22.0066 11.5308L11.4097 -7.0889L-7.00659 3.69741L3.59034 22.3171Z" fill="url(#paint0_linear_68_7271)"/>
</g>
<defs>
<linearGradient id="paint0_linear_68_7271" x1="12.7113" y1="16.975" x2="1.88466" y2="-1.51018" gradientUnits="userSpaceOnUse">
<stop stop-color="#B34E06"/>
<stop offset="0.8" stop-color="#F5A857"/>
</linearGradient>
</defs>
</svg>
