<svg width="15" height="16" viewBox="0 0 15 16" fill="none" xmlns="http://www.w3.org/2000/svg">
<mask id="mask0_68_7480" style="mask-type:luminance" maskUnits="userSpaceOnUse" x="0" y="0" width="15" height="16">
<path d="M8.52102 0.658095L9.93618 3.71666C10.0959 4.06201 10.415 4.3037 10.7867 4.36147L14.0413 4.86577C14.9488 5.00676 15.3193 6.12935 14.6782 6.79592L12.253 9.31762C12.003 9.57749 11.8895 9.94246 11.9471 10.3006L12.5099 13.7999C12.6614 14.7424 11.675 15.4476 10.8511 14.9853L8.04559 13.4121C7.70609 13.2219 7.29394 13.2219 6.95433 13.4121L4.14898 14.9853C3.32503 15.4476 2.33866 14.7424 2.49018 13.7999L3.0528 10.3006C3.11046 9.94246 2.9969 9.57749 2.74694 9.31762L0.321742 6.79592C-0.319275 6.12935 0.051273 5.00676 0.958658 4.86577L4.2132 4.36147C4.58503 4.3037 4.90402 4.06201 5.06386 3.71666L6.47902 0.658095C6.88496 -0.219365 8.11508 -0.219365 8.52102 0.658095Z" fill="white"/>
</mask>
<g mask="url(#mask0_68_7480)">
<path d="M21.3274 11.3486L3.77368 21.6299L-6.32788 3.87888L11.2249 -6.40237L21.3274 11.3486Z" fill="#F4F1EA" stroke="black"/>
</g>
<mask id="mask1_68_7480" style="mask-type:luminance" maskUnits="userSpaceOnUse" x="0" y="0" width="15" height="16">
<path d="M6.93262 0.868164C7.1455 0.40801 7.757 0.379377 8.01953 0.782227L8.06738 0.868164L9.48242 3.92676C9.68288 4.36003 10.0597 4.68164 10.5117 4.81152L10.71 4.85547L13.9648 5.36035V5.35938C14.4317 5.4321 14.6561 5.99101 14.3799 6.375L14.3174 6.44922L11.8926 8.9707C11.578 9.29778 11.4144 9.73931 11.4336 10.1875L11.4531 10.3799L12.0166 13.8789C12.0989 14.3909 11.6083 14.751 11.1807 14.5889L11.0957 14.5488L8.29004 12.9756C7.86001 12.7347 7.34872 12.705 6.89844 12.8857L6.70996 12.9756L3.9043 14.5488C3.48772 14.7826 2.96578 14.4697 2.97461 13.9795L2.9834 13.8789L3.54688 10.3799C3.61891 9.93185 3.50317 9.4757 3.23242 9.11816L3.10742 8.9707L0.681641 6.44922H0.682617C0.315546 6.06752 0.537292 5.43689 1.03516 5.35938V5.36035L4.29004 4.85547C4.76171 4.78215 5.17208 4.50518 5.4209 4.10547L5.51758 3.92676L6.93262 0.868164Z" stroke="white"/>
</mask>
<g mask="url(#mask1_68_7480)">
<path d="M21.3274 11.3486L3.77368 21.6299L-6.32788 3.87888L11.2249 -6.40237L21.3274 11.3486Z" fill="#333333" fill-opacity="0.8" stroke="black"/>
</g>
</svg>
