<svg width="40" height="40" viewBox="0 0 40 40" fill="none" xmlns="http://www.w3.org/2000/svg">
<path d="M37.425 36.25C37.425 36.913 37.1615 37.549 36.6927 38.0178C36.2238 38.4867 35.588 38.75 34.925 38.75H4.92493C4.26188 38.75 3.62599 38.4867 3.15716 38.0178C2.68831 37.549 2.42493 36.913 2.42493 36.25V3.75C2.42493 3.08697 2.68831 2.45107 3.15716 1.98223C3.62599 1.51339 4.26188 1.25 4.92493 1.25H29.925C30.5758 1.25093 31.2007 1.50565 31.6667 1.96L36.6667 6.765C36.9053 6.99768 37.0952 7.27578 37.2248 7.5829C37.3543 7.89002 37.4213 8.21997 37.4217 8.55333L37.425 36.25Z" stroke="#F9F7F4" stroke-width="1.5" stroke-linecap="round" stroke-linejoin="round"/>
<path d="M9.92493 12.5V31.25H29.925" stroke="#F9F7F4" stroke-width="1.5" stroke-linecap="round" stroke-linejoin="round"/>
<path d="M9.92493 26.25L15.5283 21.02C16.1329 20.4707 16.9205 20.1662 17.7375 20.1662C18.5543 20.1662 19.342 20.4707 19.9467 21.02L21.1567 22.15C21.5032 22.4673 21.9142 22.706 22.3613 22.8498C22.8087 22.9937 23.2817 23.0392 23.7483 22.9833C24.2105 22.9352 24.6562 22.7852 25.0535 22.5442C25.451 22.3033 25.79 21.9775 26.0467 21.59L28.6667 17.5" stroke="#F9F7F4" stroke-width="1.5" stroke-linecap="round" stroke-linejoin="round"/>
</svg>
