<svg width="40" height="40" viewBox="0 0 40 40" fill="none" xmlns="http://www.w3.org/2000/svg">
<path d="M33.3333 40C34.2174 40 35.0652 39.6488 35.6903 39.0237C36.3155 38.3986 36.6666 37.5507 36.6666 36.6667V10.55C36.667 10.1101 36.5803 9.67457 36.4115 9.26839C36.2428 8.8622 35.9953 8.49343 35.6833 8.18333L28.4833 0.983334C28.1732 0.671387 27.8044 0.423897 27.3983 0.255129C26.9921 0.0863611 26.5565 -0.000347486 26.1166 1.04655e-06H6.66665C5.78259 1.04655e-06 4.93474 0.351191 4.30962 0.976312C3.6845 1.60143 3.33331 2.44928 3.33331 3.33333V36.6667C3.33331 37.5507 3.6845 38.3986 4.30962 39.0237C4.93474 39.6488 5.78259 40 6.66665 40H33.3333ZM29.1666 30C29.1623 30.3302 29.0292 30.6456 28.7958 30.8791C28.5623 31.1126 28.2468 31.2457 27.9166 31.25H11.6666C11.3351 31.25 11.0172 31.1183 10.7828 30.8839C10.5483 30.6495 10.4166 30.3315 10.4166 30C10.4166 29.6685 10.5483 29.3505 10.7828 29.1161C11.0172 28.8817 11.3351 28.75 11.6666 28.75H27.9166C28.2468 28.7543 28.5623 28.8874 28.7958 29.1209C29.0292 29.3544 29.1623 29.6698 29.1666 30ZM10.8333 23.0167L16.2666 17.5667C16.5316 17.2966 16.8806 17.1248 17.2561 17.0793C17.6317 17.0339 18.0116 17.1176 18.3333 17.3167L21.1166 18.9833C21.1876 19.0401 21.2758 19.0711 21.3666 19.0711C21.4575 19.0711 21.5457 19.0401 21.6166 18.9833L25.7833 14.8333C25.9327 14.6589 26.1166 14.5172 26.3234 14.4171C26.5301 14.3171 26.7554 14.2609 26.9849 14.252C27.2144 14.2431 27.4433 14.2818 27.6572 14.3656C27.8711 14.4494 28.0653 14.5765 28.2277 14.7389C28.3902 14.9013 28.5172 15.0956 28.601 15.3095C28.6848 15.5233 28.7235 15.7522 28.7146 15.9818C28.7058 16.2113 28.6496 16.4365 28.5495 16.6433C28.4495 16.8501 28.3078 17.0339 28.1333 17.1833L22.8333 22.5C22.5706 22.7621 22.2279 22.929 21.8596 22.9743C21.4913 23.0196 21.1184 22.9406 20.8 22.75L18.0166 21.0833C17.9457 21.0265 17.8575 20.9956 17.7666 20.9956C17.6758 20.9956 17.5876 21.0265 17.5166 21.0833L13.2333 25.3667C12.9145 25.6397 12.5044 25.7824 12.0849 25.7662C11.6654 25.75 11.2675 25.5761 10.9707 25.2793C10.6739 24.9824 10.5 24.5845 10.4838 24.1651C10.4676 23.7456 10.6103 23.3355 10.8833 23.0167H10.8333Z" fill="#F9F7F4"/>
</svg>
